<svg width="48" height="48" xmlns="http://www.w3.org/2000/svg" xmlns:xlink="http://www.w3.org/1999/xlink">
 <defs>
  <path id="a" d="m48,0l0,48l-48,0l0,-48l48,0z"/>
 </defs>
 <clipPath id="b">
  <use id="svg_1" xlink:href="#a"/>
 </clipPath>
 <g>
  <title>background</title>
  <rect fill="none" id="canvas_background" height="402" width="582" y="-1" x="-1"/>
 </g>
 <g>
  <title>Layer 1</title>
  <path fill="#ffffff" id="svg_2" d="m24,4c-11.05,0 -20,8.95 -20,20s8.95,20 20,20s20,-8.95 20,-20s-8.95,-20 -20,-20zm0,36c-8.82,0 -16,-7.18 -16,-16s7.18,-16 16,-16s16,7.18 16,16s-7.18,16 -16,16zm-3.84,-18.27c0.11,-0.65 0.31,-1.23 0.6,-1.74s0.69,-0.92 1.18,-1.23c0.47,-0.29 1.06,-0.45 1.79,-0.46c0.48,0.01 0.92,0.09 1.3,0.26c0.41,0.18 0.75,0.42 1.04,0.72s0.51,0.66 0.67,1.06s0.25,0.83 0.27,1.28l3.58,0c-0.03,-0.94 -0.22,-1.8 -0.55,-2.58s-0.81,-1.45 -1.41,-2.02s-1.32,-1 -2.16,-1.31s-1.77,-0.47 -2.79,-0.47c-1.3,0 -2.43,0.22 -3.39,0.67s-1.76,1.06 -2.4,1.84s-1.12,1.68 -1.43,2.71s-0.46,2.12 -0.46,3.27l0,0.55c0,1.16 0.16,2.25 0.47,3.28s0.79,1.93 1.43,2.7s1.44,1.38 2.41,1.83s2.1,0.67 3.4,0.67c0.94,0 1.82,-0.15 2.64,-0.46s1.54,-0.73 2.16,-1.27s1.12,-1.16 1.48,-1.88s0.57,-1.48 0.6,-2.3l-3.58,0c-0.02,0.42 -0.12,0.8 -0.3,1.16s-0.42,0.66 -0.72,0.91s-0.65,0.45 -1.05,0.59c-0.38,0.13 -0.78,0.2 -1.21,0.2c-0.72,-0.02 -1.31,-0.17 -1.79,-0.47c-0.5,-0.32 -0.9,-0.73 -1.19,-1.24s-0.49,-1.09 -0.6,-1.75s-0.15,-1.3 -0.15,-1.97l0,-0.55c0,-0.68 0.05,-1.35 0.16,-2z" clip-path="url(#b)"/>
 </g>
</svg>